<svg xmlns="http://www.w3.org/2000/svg" viewBox="0 0 764.22 306.41"><defs><style>.cls-1{fill:#fcee21;}.cls-2{fill:#ff3c2a;}.cls-3{fill:none;stroke:#000;stroke-miterlimit:10;}.cls-4{fill:#fdffc4;}.cls-5{fill:#fcffc2;}.cls-6{opacity:0.31;}.cls-7{fill:#ff8a1f;}</style></defs><g id="Capa_3" data-name="Capa 3"><path class="cls-1" d="M857.63,763c-26.69-20.43-76.57-47.15-106.88-60.63a29.06,29.06,0,0,1-27.27,18.55c-16.06,0-29.09-12.7-29.09-28.34a27.54,27.54,0,0,1,2.12-10.6c-208.32-65.32-459.33-7.17-537.21,14a11.09,11.09,0,0,0-3.45,20c98.3,67.61,64.26,146.49,41,181.81-3.69,5.6,2.13,12.53,8.52,10.18,309.56-113.45,499-65.69,558-44.41,12.1,4.36,29,6.5,36.45-3.73l41.57-54.73C850.32,792.87,869.7,772.21,857.63,763Z" transform="translate(-102.59 -610.44)"/><ellipse class="cls-2" cx="616.43" cy="51.58" rx="6.88" ry="11.79"/><ellipse class="cls-2" cx="738.16" cy="657.5" rx="12.66" ry="6.25" transform="translate(-197.63 579.03) rotate(-74.25)"/><path class="cls-2" d="M760.68,670.59c-4,4.69-9.68,6.4-12.71,3.83s-2.25-8.47,1.74-13.16,10.66-7.44,13.68-4.86S764.67,665.89,760.68,670.59Z" transform="translate(-102.59 -610.44)"/><ellipse class="cls-2" cx="759.38" cy="683.55" rx="11.03" ry="6.64" transform="translate(-364.85 85.29) rotate(-42.67)"/><path class="cls-3" d="M728.09,700.24" transform="translate(-102.59 -610.44)"/><path class="cls-3" d="M726.51,691.15" transform="translate(-102.59 -610.44)"/><path class="cls-3" d="M717.41,700.8" transform="translate(-102.59 -610.44)"/><path class="cls-3" d="M708.32,691.15" transform="translate(-102.59 -610.44)"/><path class="cls-3" d="M717.41,681.5" transform="translate(-102.59 -610.44)"/><path class="cls-3" d="M737.19,672.88" transform="translate(-102.59 -610.44)"/><path class="cls-3" d="M711.42,683.55" transform="translate(-102.59 -610.44)"/><path class="cls-3" d="M733.71,709.16" transform="translate(-102.59 -610.44)"/><path class="cls-3" d="M714.72,700.48" transform="translate(-102.59 -610.44)"/><path class="cls-3" d="M746.11,704.12" transform="translate(-102.59 -610.44)"/><path class="cls-3" d="M745.1,682.45" transform="translate(-102.59 -610.44)"/><path class="cls-2" d="M737.09,712.16c-8.45,5.1-37.49-8.92-34.49-21.33,2-8.34,27.49-18.39,34.33-13.21C744.2,683.11,744.89,707.45,737.09,712.16Z" transform="translate(-102.59 -610.44)"/><path class="cls-2" d="M759,719.82H869.13a6.84,6.84,0,0,1,6.84,6.84v3.16a0,0,0,0,1,0,0H751.63a0,0,0,0,1,0,0v-2.64A7.35,7.35,0,0,1,759,719.82Z" transform="translate(397.33 -929.23) rotate(31.57)"/><path class="cls-2" d="M706,665.21C617.82,640.1,345.09,601.45,103,696.67c-4.72,1.86,31,4.49,31,4.49S457.61,593.53,701,679.56C705.78,681.26,709.57,666.24,706,665.21Z" transform="translate(-102.59 -610.44)"/><path class="cls-2" d="M773.34,870.65C696,840,434.58,813.37,210,912.92c-4.38,1.94,29.11,3.93,29.11,3.93S539.68,803.43,769,885.09C773.49,886.69,776.64,872,773.34,870.65Z" transform="translate(-102.59 -610.44)"/></g><g id="Capa_1" data-name="Capa 1"><path class="cls-4" d="M428.27,610.44c-1.43,5-2.77,10.08-4.41,15-.22.68-2.08,1.34-3,1.15-4.26-.89-6.9-3.57-7.29-8s2.44-6.19,6.35-6.74c2.85-.41,5.7-.82,8.54-1.25Z" transform="translate(-102.59 -610.44)"/><path class="cls-4" d="M491.19,635.35c-1.19-9.71,1.25-11.85,11.12-10.17C501.11,632.7,497.81,635.85,491.19,635.35Z" transform="translate(-102.59 -610.44)"/><path class="cls-5" d="M503.89,635.18c1.6-4.53,1.52-10.14,8.37-8.45,1.16.28,2.86,2.57,2.65,3.59C513.66,636.21,509.36,636.52,503.89,635.18Z" transform="translate(-102.59 -610.44)"/><path class="cls-4" d="M408.75,623.24c-5.23-6.19-4.47-9.88,2.58-11.51C410.45,615.65,409.64,619.28,408.75,623.24Z" transform="translate(-102.59 -610.44)"/><g class="cls-6"><path class="cls-7" d="M839.2,795.65c3.59-3.19,7.4-6.26,10.7-9.76,2.75-2.92,5-6.36,5.45-10.44.95-9.15-7.34-15.48-14.67-18.93-4.28-2-8.65-3.81-12.9-5.88q-6.62-3.23-13-6.81c-8.66-4.82-17.09-10-25.45-15.33-9.71-6.17-19.38-12.41-29.06-18.62-1.63-1-3.14,1.55-1.52,2.59,16.24,10.42,32.33,21.15,49,30.83a268.24,268.24,0,0,0,25.09,13c7.23,3.23,16.69,6.47,19.15,15,1.28,4.42-.62,8.49-3.53,11.77-3.4,3.85-7.54,7.09-11.37,10.5-1.45,1.28.68,3.4,2.12,2.12Z" transform="translate(-102.59 -610.44)"/></g><g class="cls-6"><path class="cls-7" d="M690.36,689.32a557.27,557.27,0,0,0-100.2-24.27,739.62,739.62,0,0,0-102.57-7.65c-34.81-.3-69.62,1.44-104.29,4.45s-68.92,7.25-103.23,12.07c-32.63,4.58-65.88,9.64-95.93,23.87q-5.53,2.63-10.86,5.66A1.5,1.5,0,0,0,174.8,706c29-16.46,62.11-22.8,94.71-27.6,34-5,68.14-9.31,102.36-12.55s68.85-5.34,103.37-5.51a766.64,766.64,0,0,1,101.93,5.87,567.93,567.93,0,0,1,100.26,21.92c4.06,1.29,8.1,2.65,12.13,4,1.83.63,2.62-2.26.8-2.89Z" transform="translate(-102.59 -610.44)"/></g><path class="cls-2" d="M760.37,662.32l-5.86,10" transform="translate(-102.59 -610.44)"/></g><g id="Capa_4" data-name="Capa 4"><path class="cls-2" d="M285.47,789.84c3.88,14.58-3.64,29.45-16.76,35.92-17.93,8.83-36.24-1.19-44.95-17.86-9.47-18.13-6-39.86,14-48.72,13.09-5.8,31.83-4.68,39,9.93-5.61,2.35-8.4,3.55-14,6a16.15,16.15,0,0,0-19.63-4.74c-12.43,5.81-11.52,19.14-6.17,29.87,4.95,9.94,14.32,19.78,26.06,14.34,7.72-3.58,10.52-10.21,8.89-18.88C277.31,793.31,280,792.13,285.47,789.84Z" transform="translate(-102.59 -610.44)"/><path class="cls-2" d="M327.73,798.35q-5.4-14.72-10.79-29.42c-2.62-7.14-6-8.45-12-6.18-6.61,2.49-8.19,9.12-5.69,15.44l10.69,27c-5,2-7.45,3-12.39,5.08l-26.67-64c5.42-2.22,8.13-3.31,13.58-5.44l9.25,23.37c.26-5,5.19-10.54,12-13.06,10.42-3.85,19.71-.59,23,8.9q5.83,16.88,11.69,33.73C335.33,795.56,332.79,796.48,327.73,798.35Z" transform="translate(-102.59 -610.44)"/><path class="cls-2" d="M376.16,782.28a19.19,19.19,0,0,1-2.05-4.08c-2.1,4.24-6.53,8-13,10.08-11,3.48-17.79-.1-20.45-7.82-4.47-13,7-20.19,17.23-24.49,6.28-2.63,7.89-4.7,6.91-8-.92-3.14-4.8-4-10.1-2.44-6.13,1.86-7.72,5.5-7,10-5,1.58-7.44,2.39-12.37,4-3.74-12.06,6.1-21.14,17-24,12-3.15,24-.76,27.42,12.74q4.19,15.3,8.36,30.59C383.33,780.2,380.94,780.88,376.16,782.28Zm-7.8-23.36c-.95,1.67-3.1,3-7.68,5.39-7.08,3.65-8.81,6.51-7.5,10.61,1.15,3.6,3.89,4.65,8,3.38,6.65-2.08,10.23-8.34,8.67-14Z" transform="translate(-102.59 -610.44)"/><path class="cls-2" d="M414.46,738.35c5.07-1.13,7.62-1.68,12.71-2.72l2.87,13.9c2.56,11.39-5,21.38-15.9,24-11.1,2.7-22.43-2.86-25.18-14.44l-11.47-43.33c5.53-1.44,8.3-2.13,13.86-3.47l3.23,13.13c9.66-2.36,19.4-4.53,29.15-6.49l1.88,9.13c-9.63,1.95-19.25,4.1-28.79,6.45,2,8,2.94,12,4.91,20,1.5,6.13,4.6,9.12,10,7.84s6.94-5.25,5.59-11.29C416.16,746,415.6,743.42,414.46,738.35Z" transform="translate(-102.59 -610.44)"/><path class="cls-2" d="M433.15,742.48a25.71,25.71,0,0,1,22.24-30.63c14.1-1.66,28.74,7.15,30.59,21.95,1.74,14-8.59,26.81-22.11,29.67C449.3,766.56,435.93,756.27,433.15,742.48Zm39-6.77c-1.47-10-6.49-14.27-15-12.9s-11.84,7.05-10,17S454,754,462.09,752.61,473.62,745.69,472.15,735.71Z" transform="translate(-102.59 -610.44)"/><path class="cls-2" d="M485,713.23c5.38-2,7.76-5.28,7.15-11.58-3.4.38-5.1.58-8.49,1l-1.7-13.48c6.18-.75,9.27-1.09,15.47-1.73.44,4.08.66,6.12,1.09,10.19,1.21,11.29-1.94,17-12.89,20.6C485.36,716.23,485.24,715.23,485,713.23Z" transform="translate(-102.59 -610.44)"/><path class="cls-2" d="M537.11,719.22c-1-4.75-4-6.3-10.4-5.84-5.33.38-8.27,1.84-8,4.74s3.26,3.84,9.06,4.93c6.12,1.15,11.9,1.91,16,3.21,5.67,1.77,8.87,5.12,9.16,11.47.54,11.8-11.82,16.9-21.5,17.59-10.19.72-24.38-2.52-26.11-14.87,5.62-.59,8.44-.87,14.07-1.35.39,4.59,4.68,6.92,11.25,6.43,4.79-.35,9-2,8.78-5.7-.21-3.5-4.18-4.36-8.69-5.05-8.92-1.37-13.93-2.31-17.85-4.16-5.15-2.44-7.24-6.08-7.71-10.45-1.24-11.59,12.2-16.13,21.28-16.51,10.65-.44,22.78,2.38,24.19,14.87C545.22,718.76,542.51,718.9,537.11,719.22Z" transform="translate(-102.59 -610.44)"/><path class="cls-2" d="M568.16,759.65q2.24-32.6,4.46-65.2c5.6.74,8.39,1.13,14,2l-2.05,23.41a17.38,17.38,0,0,1,16.21-5.08c12.6,2.17,19.83,15.14,18.15,27.29s-11.88,23-24.6,21.65c-5.9-.64-10.34-3.42-13-8.56l-.6,5.75C575.67,760.34,573.17,760.1,568.16,759.65Zm37.08-18.94c1.14-9.51-2-14.94-10-16.11-7.57-1.1-11.91,3.51-12.8,13.78-.69,8,3.69,14.07,10,14.86C598.93,754.06,604.25,749,605.24,740.71Z" transform="translate(-102.59 -610.44)"/><path class="cls-2" d="M652.05,771.8c.49-2.48.73-3.71,1.22-6.18-4.37,4.32-9.81,5.68-16.53,4.47-9.67-1.74-15.52-9.54-14-19.53s2.95-20,4.42-30c5.49,1,8.23,1.59,13.7,2.73l-4.65,27.77c-.94,5.67,1.4,8.9,6.9,10,6.6,1.28,10.91-2.19,12.06-8,2-10.18,3-15.27,5-25.45,5.4,1.26,8.09,1.91,13.47,3.26q-4.73,21.75-9.44,43.5C659.31,773.28,656.89,772.77,652.05,771.8Z" transform="translate(-102.59 -610.44)"/><path class="cls-2" d="M669.73,775.58q4.89-21.62,9.77-43.23c5.08,1.31,7.61,2,12.66,3.39-.51,2-.76,3.06-1.26,5.11,5.83-4.52,11.16-3.53,16.62-1.91l1.75.52c-1.23,4.53-1.85,6.79-3.08,11.31a27.56,27.56,0,0,0-3.59-1.31c-8.13-2.32-13,.1-14.67,6.94l-5.48,22.16C677.37,777.33,674.83,776.73,669.73,775.58Z" transform="translate(-102.59 -610.44)"/><path class="cls-2" d="M733.33,786.89c-2.94,3-8.92,3.22-14.88,1.74-12.39-3.07-18.3-15.62-15.22-27.43,3.24-12.46,15.92-18.85,28-14.83,6.3,2.11,10.27,5.66,12,10.81.67-2,1-3,1.66-5,5.27,1.84,7.89,2.79,13.13,4.72q-7.11,19.88-14.2,39.76c-4.79,12.14-17.94,14.36-29.39,11.43-10.44-2.69-20.71-11.56-17.62-23.44,4.69,1.23,7,1.87,11.7,3.17-1.45,4.95,1.79,9,8,10.77,6.55,1.89,12.87.15,14.63-5.14C732,790.84,732.44,789.52,733.33,786.89Zm4.95-13.55c2.92-8.7.61-14.15-6.84-16.59s-12.41.52-14.92,9c-2.17,7.36,1,13.37,7.28,15.28S736,780.1,738.28,773.34Z" transform="translate(-102.59 -610.44)"/><path class="cls-2" d="M767.14,785.53c-1.86,5.92.7,11.12,6.79,13.45,4,1.53,8.17,1.31,10.13-.93,5.11,2.05,7.66,3.09,12.73,5.22-6.25,6.32-15.94,7-25.55,3.84-13-4.26-20.39-16.53-15.48-29.62,4.73-12.6,19.43-15.79,31-10.5,12.22,5.56,20.37,18.37,12.9,31.58Q783.57,791.69,767.14,785.53ZM789.57,787c2.18-5.61-1.38-10.24-6.39-12.27s-10.59-.6-13.15,4.52C777.88,782.27,781.79,783.82,789.57,787Z" transform="translate(-102.59 -610.44)"/><path class="cls-2" d="M796.73,816.05q8.43-18.15,16.84-36.31c4.77,2.16,7.14,3.26,11.87,5.5l-2.08,4.28c6.47-2.84,11.55-.9,16.65,1.64l1.63.82-4.9,9.38a28.45,28.45,0,0,0-3.31-1.88c-7.61-3.7-12.78-2.51-15.58,3.2l-9.07,18.51C804,819.1,801.57,818.07,796.73,816.05Z" transform="translate(-102.59 -610.44)"/><g class="cls-6"><path class="cls-7" d="M792.58,850.69c-41.78,4.83-81.77-14.72-122.31-21.4-41.69-6.88-84.07-6.45-126.14-4.39-74,3.63-148.19,12.73-220,31.14-39.72,10.18-78.79,23.39-115.71,41.35-5.79,2.81-.72,11.44,5,8.63,65.88-32,138.71-49,210.87-59.67,36.09-5.31,72.44-8.81,108.85-10.87,41.09-2.33,82.62-3.57,123.52,1.82,23.44,3.09,45.92,9.45,68.7,15.51,21.89,5.82,44.45,10.51,67.19,7.88,6.32-.73,6.39-10.74,0-10Z" transform="translate(-102.59 -610.44)"/></g></g></svg>